<svg xmlns="http://www.w3.org/2000/svg" width="260" height="220" viewBox="0 0 260 220" fill="none">
  <g stroke="#466456" stroke-width="2" stroke-linecap="round" stroke-linejoin="round" opacity=".14">
    <path d="M28 42c8-16 20-16 27 0-2 10-8 17-14 17S30 52 28 42Z"/><path d="M41 25v-8m-5 10 5-6m5 6-5-6"/>
    <path d="M113 35c-15 5-19 20-8 29 9 7 23 1 24-10 1-8-5-16-16-19Z"/><path d="M113 35c-1-7 2-12 7-16m-7 16c-6-4-11-4-15-1"/>
    <path d="m190 24 8 13-5 29h-19l-5-29 8-13"/><path d="M169 37h29m-16-13 3-9m4 9 5-8"/>
    <path d="M44 137c-5-13 1-25 13-28 12 3 18 15 13 28-5 12-21 12-26 0Z"/><path d="M57 109v-11m-6 14 6-7m6 7-6-7"/>
    <path d="m125 129 9-22 9 22-9 25-9-25Z"/><path d="M134 107v-12m-5 15 5-8m5 8-5-8"/>
    <path d="M203 127c-8-11-3-25 10-28 13 3 18 17 10 28-6 9-14 9-20 0Z"/><path d="M213 99v-10m-6 13 6-8m6 8-6-8"/>
    <path d="m27 195 19-14 19 14-4 19H31l-4-19Z"/><path d="M31 195h30m-22 4v12m12-12v12"/>
    <path d="M126 192c-9-8-8-19 2-24 10 5 11 16 2 24-1 1-3 1-4 0Z"/><path d="M128 168v-10m-6 12 6-7m6 7-6-7"/>
  </g>
</svg>
